<svg width="40" height="40" viewBox="0 0 40 40" fill="none" xmlns="http://www.w3.org/2000/svg">
<path d="M34.375 4.375H5.625C4.93359 4.375 4.375 4.93359 4.375 5.625V34.375C4.375 35.0664 4.93359 35.625 5.625 35.625H34.375C35.0664 35.625 35.625 35.0664 35.625 34.375V5.625C35.625 4.93359 35.0664 4.375 34.375 4.375ZM20.043 20.2383L12.543 26.5273C12.3398 26.6992 12.0312 26.5547 12.0312 26.2891V23.8398C12.0312 23.75 12.0742 23.6602 12.1445 23.6016L16.4336 20L12.1445 16.3984C12.1086 16.3701 12.0797 16.3338 12.0601 16.2925C12.0404 16.2512 12.0306 16.2059 12.0312 16.1602V13.7109C12.0312 13.4453 12.3398 13.3008 12.543 13.4727L20.043 19.7578C20.1953 19.8828 20.1953 20.1133 20.043 20.2383ZM27.9688 26.2891C27.9688 26.4609 27.8359 26.6016 27.6758 26.6016H20.4492C20.2891 26.6016 20.1562 26.4609 20.1562 26.2891V24.4141C20.1562 24.2422 20.2891 24.1016 20.4492 24.1016H27.6758C27.8359 24.1016 27.9688 24.2422 27.9688 24.4141V26.2891Z" fill="#70A0FF"/>
</svg>
