<svg width="260" height="260" viewBox="0 0 260 260" fill="none" xmlns="http://www.w3.org/2000/svg">
<rect width="260" height="260" rx="130" fill="black"/>
<path d="M86.9434 87.1973C98.9193 87.1973 107.658 89.5459 113.159 94.2432C118.703 98.8981 121.475 105.584 121.475 114.302C121.475 118.237 120.819 121.982 119.507 125.537C118.237 129.049 116.164 132.16 113.286 134.868C110.409 137.534 106.621 139.65 101.924 141.216C97.2689 142.739 91.556 143.501 84.7852 143.501H73.4863V180H62.6953V87.1973H86.9434ZM85.9277 96.4014H73.4863V134.233H83.5791C89.5036 134.233 94.4336 133.599 98.3691 132.329C102.347 131.06 105.33 129.007 107.319 126.172C109.308 123.294 110.303 119.486 110.303 114.746C110.303 108.568 108.335 103.976 104.399 100.972C100.464 97.9248 94.3066 96.4014 85.9277 96.4014ZM180.571 95.3857C175.451 95.3857 170.838 96.2744 166.733 98.0518C162.671 99.7868 159.201 102.326 156.323 105.669C153.488 108.97 151.309 112.969 149.785 117.666C148.262 122.363 147.5 127.653 147.5 133.535C147.5 141.322 148.706 148.092 151.118 153.848C153.573 159.561 157.212 163.983 162.036 167.114C166.903 170.246 172.975 171.812 180.254 171.812C184.401 171.812 188.294 171.473 191.934 170.796C195.615 170.076 199.191 169.188 202.661 168.13V177.524C199.276 178.794 195.721 179.725 191.997 180.317C188.273 180.952 183.851 181.27 178.73 181.27C169.294 181.27 161.401 179.323 155.054 175.43C148.748 171.494 144.009 165.951 140.835 158.799C137.703 151.647 136.138 143.205 136.138 133.472C136.138 126.447 137.111 120.036 139.058 114.238C141.047 108.398 143.924 103.363 147.69 99.1309C151.499 94.8991 156.154 91.6406 161.655 89.3555C167.199 87.028 173.547 85.8643 180.698 85.8643C185.396 85.8643 189.924 86.3298 194.282 87.2607C198.641 88.1917 202.576 89.5247 206.089 91.2598L201.772 100.4C198.81 99.0462 195.552 97.8825 191.997 96.9092C188.485 95.8936 184.676 95.3857 180.571 95.3857Z" fill="#FFFEFE"/>
</svg>
