<svg width="32" height="32" viewBox="0 0 32 32" fill="none" xmlns="http://www.w3.org/2000/svg">
<g clip-path="url(#clip0_173_22)">
<path d="M19.079 0.240014L20.282 0.505014L21.255 0.854014L22.042 1.25401L22.641 1.68201L23.094 2.13501L23.427 2.58701L23.64 3.02601L23.771 3.42601L23.828 3.77001L23.855 4.04101L23.839 4.21301V11.333L23.771 12.172L23.599 12.907L23.318 13.522L22.974 14.027L22.574 14.438L22.137 14.771L21.668 15.027L21.199 15.214L20.762 15.35L20.362 15.438L20.018 15.495L19.737 15.522H11.773L10.857 15.589L10.07 15.772L9.40298 16.069L8.85598 16.428L8.41298 16.856L8.05298 17.319L7.78798 17.804L7.58898 18.293L7.45398 18.761L7.36098 19.189L7.30798 19.548L7.28298 19.829V23.908H4.30798L4.02798 23.865L3.65198 23.772L3.23098 23.616L2.76198 23.376L2.28298 23.028L1.80398 22.548L1.33498 21.933L0.907977 21.146L0.531977 20.173L0.255977 19.001L0.0689766 17.6L0.000976562 15.96L0.0799766 14.335L0.292977 12.95L0.615977 11.789L1.04298 10.841L1.52298 10.081L2.05398 9.49701L2.61698 9.05401L3.17398 8.73701L3.70998 8.52401L4.18998 8.38801L4.61698 8.32001L4.93398 8.30901H5.14698L5.23098 8.32001H16.106V7.21601H8.31898L8.30798 3.54901L8.28298 3.05401L8.35098 2.60101L8.49598 2.19001L8.71998 1.81401L9.05298 1.47101L9.46998 1.16301L9.97398 0.898014L10.563 0.653014L11.24 0.456014L12.016 0.295014L12.864 0.164014L13.812 0.0810142L14.839 0.0290142L15.959 0.00201416L17.651 0.0700142L19.079 0.240014ZM10.683 2.88001L10.375 3.31701L10.266 3.86401L10.375 4.41201L10.683 4.86401L11.12 5.16101L11.667 5.28101L12.214 5.16101L12.651 4.86401L12.959 4.41201L13.068 3.86401L12.959 3.31701L12.651 2.88001L12.214 2.58801L11.667 2.46901L11.12 2.58801L10.683 2.88001ZM28.136 8.14501L28.505 8.22901L28.932 8.38501L29.401 8.62501L29.88 8.98401L30.36 9.45301L30.828 10.078L31.255 10.863L31.626 11.838L31.907 13.015L32.094 14.4L32.162 16.04L32.079 17.681L31.864 19.066L31.547 20.211L31.12 21.159L30.64 21.919L30.104 22.519L29.547 22.956L28.984 23.279L28.453 23.492L27.973 23.612L27.546 23.68L27.229 23.705L27.016 23.69H16.052V24.783H23.839L23.855 28.466L23.88 28.945L23.812 29.398L23.667 29.809L23.438 30.194L23.105 30.527L22.694 30.851L22.189 31.116L21.6 31.345L20.923 31.542L20.147 31.714L19.294 31.834L18.351 31.927L17.319 31.979L16.199 31.995L14.507 31.943L13.08 31.755L11.881 31.49L10.908 31.157L10.121 30.756L9.52198 30.313L9.06898 29.86L8.73598 29.408L8.52298 28.969L8.38698 28.569L8.33498 28.236L8.30798 27.969L8.31898 27.798V20.678L8.38698 19.823L8.56398 19.099L8.83998 18.49L9.18898 17.979L9.58898 17.558L10.028 17.235L10.496 16.968L10.96 16.781L11.403 16.645L11.804 16.568L12.147 16.516L12.6 16.473H20.387L21.308 16.406L22.095 16.223L22.762 15.942L23.309 15.567L23.748 15.139L24.107 14.676L24.378 14.191L24.577 13.712L24.712 13.248L24.807 12.821L24.859 12.446L24.884 12.165V8.08601H27.671L27.859 8.09701L28.136 8.14501ZM19.505 27.145L19.197 27.588L19.093 28.136L19.197 28.683L19.505 29.12L19.948 29.427L20.495 29.531L21.042 29.427L21.479 29.12L21.787 28.683L21.896 28.136L21.787 27.588L21.479 27.145L21.042 26.838L20.495 26.734L19.948 26.838L19.505 27.145Z" fill="#70A0FF"/>
</g>
<defs>
<clipPath id="clip0_173_22">
<rect width="32" height="32" fill="white"/>
</clipPath>
</defs>
</svg>
