<svg width="32" height="32" viewBox="0 0 32 32" fill="none" xmlns="http://www.w3.org/2000/svg">
<path d="M15.9998 8C12.4398 8 10.2265 9.77333 9.33317 13.3333C10.6665 11.56 12.2265 10.8933 13.9998 11.3333C15.0132 11.5867 15.7465 12.32 16.5465 13.1333C17.8532 14.4667 19.3332 16 22.6665 16C26.2265 16 28.4398 14.2267 29.3332 10.6667C27.9998 12.44 26.4398 13.1067 24.6665 12.6667C23.6532 12.4133 22.9332 11.68 22.1198 10.8667C20.8132 9.53333 19.3332 8 15.9998 8ZM9.33317 16C5.77317 16 3.55984 17.7733 2.6665 21.3333C3.99984 19.56 5.55984 18.8933 7.33317 19.3333C8.3465 19.5867 9.0665 20.32 9.87984 21.1333C11.1865 22.4667 12.6665 24 15.9998 24C19.5598 24 21.7732 22.2267 22.6665 18.6667C21.3332 20.44 19.7732 21.1067 17.9998 20.6667C16.9865 20.4133 16.2665 19.68 15.4532 18.8667C14.1465 17.5333 12.6665 16 9.33317 16Z" fill="#70A0FF"/>
</svg>
